<?xml version="1.0" standalone="no"?>
<!DOCTYPE svg PUBLIC "-//W3C//DTD SVG 20010904//EN"
 "http://www.w3.org/TR/2001/REC-SVG-20010904/DTD/svg10.dtd">
<svg version="1.0" xmlns="http://www.w3.org/2000/svg"
 width="270.000000pt" height="270.000000pt" viewBox="0 0 270.000000 270.000000"
 preserveAspectRatio="xMidYMid meet">
<metadata>
Created by potrace 1.11, written by Peter Selinger 2001-2013
</metadata>
<g transform="translate(0.000000,270.000000) scale(0.100000,-0.100000)"
fill="#000000" stroke="none">
<path d="M0 1350 l0 -1350 1350 0 1350 0 0 1350 0 1350 -1350 0 -1350 0 0
-1350z m1985 657 c7 -34 -26 -122 -65 -175 -40 -55 -64 -143 -89 -337 -5 -38
-14 -95 -19 -125 -6 -30 -13 -95 -17 -145 -5 -65 -14 -105 -33 -145 -14 -30
-29 -84 -33 -120 -26 -228 -30 -240 -91 -240 -35 0 -54 29 -63 95 -4 28 -13
57 -20 65 -6 8 -22 60 -34 115 -49 222 -63 281 -73 310 -6 17 -17 48 -24 70
-8 22 -19 59 -25 82 -5 24 -20 55 -33 70 l-23 27 -16 -25 c-9 -13 -21 -46 -28
-74 -7 -27 -27 -81 -45 -120 -18 -38 -40 -99 -49 -135 -9 -36 -22 -87 -30
-115 -8 -27 -22 -81 -30 -120 -32 -141 -64 -204 -116 -225 -48 -20 -79 -4 -96
50 -33 107 -55 222 -63 325 -4 61 -18 156 -29 212 -12 55 -21 132 -21 170 -1
37 -8 86 -16 108 -8 22 -20 56 -26 75 -5 19 -22 49 -38 65 -15 17 -33 40 -39
52 -28 55 3 154 56 174 47 18 97 10 152 -23 44 -27 60 -45 88 -98 34 -65 34
-65 39 -240 3 -96 9 -193 14 -215 5 -22 10 -56 10 -76 0 -45 6 -50 36 -37 14
7 29 27 38 52 62 178 82 228 111 277 19 30 54 99 79 152 38 83 48 97 68 97 40
0 48 -18 48 -105 -1 -58 6 -102 24 -160 14 -44 32 -107 40 -140 9 -33 27 -105
41 -160 14 -55 30 -128 35 -163 8 -53 18 -98 36 -161 3 -11 7 -11 19 -1 20 16
19 60 -1 110 -12 30 -15 57 -10 108 3 37 10 115 14 173 6 72 15 120 29 150 12
24 26 68 32 97 6 28 22 70 36 92 14 22 38 67 55 102 17 34 39 71 49 82 10 12
24 32 31 46 28 56 66 109 80 113 23 5 29 -1 35 -36z m-220 -117 c11 -17 -5
-32 -21 -19 -8 6 -14 15 -14 20 0 12 27 11 35 -1z"/>
</g>
</svg>
